<svg  xmlns="http://www.w3.org/2000/svg"><defs id="SvgjsDefs1001"></defs><g id="SvgjsG1007" featurekey="nameFeature-0" transform="matrix(3.688049381298749,0,0,3.688049381298749,7.376101400495977,-59.4513520872741)" fill="#fff"><path d="M8.44 36.16 c-0.88 0 -3.52 2 -6.36 7.28 c-0.72 2.44 -1.4 4.6 -1.84 5.84 c-1 2.88 -1.4 3.84 -1.68 3.84 c-0.24 0.04 -0.52 -0.2 -0.56 -0.48 c0 -0.2 0.6 -3.32 2.52 -7.52 c0.32 -0.76 0.68 -1.48 1.04 -2.16 c0.88 -2.96 1.56 -6.32 2.28 -10.48 c0.08 -0.56 0.84 -0.32 0.76 0.28 c-0.36 2.4 -1 5.28 -1.76 8 c2.12 -3.28 4.24 -5.2 5.68 -5.2 c0.52 0 1.32 0.72 1.32 2.16 c0 0.2 -0.04 0.4 -0.04 0.6 c2.88 -1.4 6.16 -2.72 8.64 -3.4 c0.48 -0.12 0.96 0.28 0.44 0.4 c-2.48 0.68 -6.2 2.24 -9.28 3.84 c-0.32 1.08 -0.96 2.16 -1.72 2.96 c-2.2 2.2 -4.48 1.96 -4.48 0.88 c0 -0.96 2.28 -2.56 5.28 -4.12 c0.12 -0.48 0.2 -0.92 0.24 -1.36 c0.04 -0.84 -0.16 -1.36 -0.48 -1.36 z M7.12 41.52 c0.52 -0.48 0.92 -1.08 1.2 -1.72 c-2.32 1.24 -4 2.4 -4 2.96 c0 0.4 0.92 0.6 2.8 -1.24 z M15.8 38.36 c0.32 -0.68 0.72 -1.28 1.08 -1.76 c-0.2 -0.2 -0.4 -0.4 -0.52 -0.68 c-0.72 -1.52 0.6 -3.32 2.36 -3.32 s2.84 1.64 2.84 4.16 l0 0.12 c0.16 0 0.32 0 0.52 -0.04 c2 -0.16 5.72 -1.12 7.4 -1.72 c0.28 -0.12 0.48 0.32 0.28 0.4 c-0.88 0.36 -5.44 1.84 -7.8 2.04 c-0.16 0.04 -0.32 0.04 -0.44 0.04 c-0.36 3.84 -3.2 6.96 -5.04 6.96 c-1.8 0 -2.28 -3.08 -0.68 -6.2 z M16.32 43.84 c1.8 0 3.96 -2.72 4.32 -6.24 c-1.08 0 -2.24 -0.16 -3.08 -0.56 c-0.32 0.44 -0.68 0.96 -0.96 1.48 c-1.52 2.96 -1.04 5.32 -0.28 5.32 z M19 35.28 c0 0.08 -0.44 0.48 -0.96 1.12 c0.72 0.32 1.68 0.48 2.68 0.48 l0 -0.4 c0 -2.08 -1 -3.2 -2.12 -3.2 c-1.08 0 -2.08 1.04 -1.52 2.24 c0.08 0.2 0.2 0.32 0.32 0.48 c0.6 -0.64 1.12 -1 1.24 -1 c0.24 0 0.36 0.12 0.36 0.28 z M20.240000000000002 31.08 c-0.2 -0.08 -0.36 -0.76 -0.28 -1.04 c0.08 -0.24 0.4 -0.68 0.64 -0.64 c0.36 0.08 0.6 0.56 0.52 0.92 c-0.12 0.36 -0.64 0.8 -0.88 0.76 z M22.28 31 c-0.16 0 -0.32 -0.28 -0.32 -0.64 c0 -0.12 0.52 -0.8 0.8 -0.8 c0.12 0 0.44 0.28 0.44 0.52 c0 0.44 -0.76 0.92 -0.92 0.92 z M29.279999999999998 26.92 c1.84 -8.64 2.88 -10.8 3.52 -10.8 c0.36 0 0.44 0.96 0.36 1.32 c-0.12 0.48 -0.64 1.32 -1.08 2.28 c-0.08 0.2 -1.12 4.16 -1.88 7.72 c-1.12 5 -1.88 9.8 -2.16 11.96 c2.28 -1.52 3.6 -2.52 4.48 -2.56 c0.76 0 0.84 0.64 0.84 1.48 c0 1.04 -0.08 1.52 0.64 1.52 c2.72 0 7.36 -2.6 10.72 -4.56 c0.48 -0.24 0.92 0.28 0.2 0.64 c-4.4 2.4 -7.44 4.64 -10.76 4.68 c-1.16 0 -1.72 -0.8 -1.72 -1.8 c0 -0.56 0.12 -1 -0.12 -1 c-0.4 0 -2.48 1.2 -4 2.2 c-0.32 0.24 -0.64 0.48 -0.88 0.48 s-0.44 -0.44 -0.32 -1.28 c0.32 -2.4 1.04 -7.08 2.16 -12.28 z M57.239999999999995 34.96 c0.2 0 0.36 0.4 0.16 0.48 c-0.48 0.12 -2.4 1.2 -7 2.76 c-3.64 1.24 -4.56 1.44 -5.2 1.44 c-1.04 0 -1.36 -0.72 -1.36 -1.36 c0 -0.6 0.16 -1.64 0.4 -2.32 c0.16 -0.56 0.36 -0.88 1.04 -1 c0.2 -0.04 0.44 0.2 0.2 0.64 c-0.6 1.24 -0.72 2 -0.8 2.64 c-0.04 0.48 0.16 0.72 0.36 0.72 c0.52 0 1.64 -0.12 5.04 -1.32 c3.92 -1.4 6.92 -2.68 7.16 -2.68 z M46.08 32.12 c-0.2 -0.08 -0.36 -0.76 -0.28 -1.04 c0.08 -0.24 0.4 -0.68 0.64 -0.64 c0.36 0.08 0.6 0.56 0.52 0.92 c-0.12 0.36 -0.64 0.8 -0.88 0.76 z M56.839999999999996 35.32 c0.08 -0.32 0.36 -0.32 0.56 -0.36 c0.24 0 0.36 0.08 0.32 0.44 c-0.08 0.76 -0.6 2.16 -0.68 2.48 c-0.04 0.08 0 0.16 0.12 0.16 s1.28 -0.56 2.08 -0.96 c1.16 -0.6 1.96 -1.04 2.56 -1.04 s1.08 0.48 1.08 1.28 c-0.08 1.12 -0.04 1.8 0.32 1.84 c0.72 0.16 3.32 -0.64 5.32 -1.48 l6.16 -2.56 c0.36 -0.16 0.56 0.4 0.12 0.6 c-1.64 0.84 -3.92 1.76 -6.04 2.68 c-2.08 0.88 -4.8 1.76 -6 1.52 c-0.84 -0.16 -1.04 -1 -0.96 -2.12 c0.04 -0.6 0 -0.84 -0.12 -0.92 c-0.2 -0.12 -0.64 0.04 -1.4 0.44 c-0.64 0.32 -2.84 1.44 -3.2 1.44 c-0.24 0 -0.96 -0.28 -0.96 -0.6 c0 -0.2 0.52 -1.56 0.72 -2.84 z M78.91999999999999 40.2 c2.8 0 10.92 -3.76 13.36 -5.08 c0.2 -0.12 1.04 -0.08 0.36 0.36 c-2.64 1.72 -11.12 5.56 -13.76 5.56 c-1.96 0 -2.52 -1.16 -2.52 -2 s0.16 -1.24 0.08 -1.32 c-0.12 -0.12 -0.36 -0.08 -1.64 0.6 c-1.16 0.68 -2.44 1.2 -2.84 1.2 c-0.56 0 -0.96 -0.36 -0.96 -0.6 c0 -0.76 0.48 -1.8 2 -2.92 c1.28 -1 2.08 -1.2 2.76 -1.2 c0.92 0 1.48 1.44 1.08 1.44 s-0.52 -0.8 -0.96 -0.8 c-0.4 0 -1.2 0.32 -2.32 1.08 c-1.04 0.68 -1.84 1.84 -1.84 2.16 c0 0.08 0.04 0.12 0.16 0.12 c0.36 0 1.04 -0.28 2.16 -0.84 c1.52 -0.72 2.52 -1.28 3 -1.28 c0.16 0 0.52 0.08 0.52 0.36 c0 0.32 -0.4 1.04 -0.4 1.96 c0 0.68 0.72 1.2 1.76 1.2 z M76.03999999999999 32.76 c-0.2 -0.08 -0.36 -0.76 -0.28 -1.04 c0.08 -0.24 0.4 -0.68 0.64 -0.64 c0.36 0.08 0.6 0.56 0.52 0.92 c-0.12 0.36 -0.64 0.8 -0.88 0.76 z M78.07999999999998 32.68 c-0.16 0 -0.32 -0.28 -0.32 -0.64 c0 -0.12 0.52 -0.8 0.8 -0.8 c0.12 0 0.44 0.28 0.44 0.52 c0 0.44 -0.76 0.92 -0.92 0.92 z"></path></g><g id="SvgjsG1008" featurekey="sloganFeature-0" transform="matrix(0.6190056467718685,0,0,0.6190056467718685,153.57628777985343,141.53077965534456)" fill="#fff"><path d="M2.3 15.879999999999999 l0 -4.82 c0 -2.88 1.58 -3.74 3.9 -3.74 c1.92 0 3.78 0.98 3.78 3 c0 0.44 -0.32 0.66 -0.66 0.66 s-0.68 -0.22 -0.68 -0.66 c0 -1.02 -1.12 -1.7 -2.44 -1.7 c-1.82 0 -2.58 0.74 -2.58 2.44 l0 4.82 c0 1.74 0.96 2.28 2.58 2.28 c1.92 0 2.6 -0.92 2.6 -2.7 l0 -0.84 l-1.8 0 c-0.42 0 -0.64 -0.32 -0.64 -0.66 s0.22 -0.68 0.64 -0.68 l2.5 0 c0.4 0 0.62 0.4 0.62 0.68 l0 1.5 c0 2.88 -1.12 4 -3.92 4 c-2.64 0 -3.9 -0.96 -3.9 -3.58 z M18.8015 15.9 l0 2.86 c0 0.44 -0.34 0.64 -0.66 0.64 c-0.34 0 -0.66 -0.2 -0.66 -0.64 l0 -10.74 c0 -0.4 0.22 -0.66 0.66 -0.66 l2.7 0 c0.76 0 3.16 0.22 3.16 2.92 l0 2.5 c0 1.52 -0.56 2.48 -1.84 2.9 l1.36 2.74 c0.28 0.54 -0.14 0.98 -0.58 0.98 c-0.24 0 -0.54 -0.16 -0.7 -0.5 l-1.46 -3 l-1.98 0 z M22.6815 12.780000000000001 l0 -2.5 c0 -0.48 -0.18 -1.58 -1.84 -1.58 l-2.04 0 l0 5.86 l1.86 0 c0.98 0 2.02 -0.22 2.02 -1.78 z M31.282999999999998 15.86 l0 -4.96 c0 -2.4 1.24 -3.68 3.64 -3.68 l0.52 0 c2.38 0 3.64 1.28 3.64 3.68 l0 4.96 c0 2.2 -1.46 3.64 -3.64 3.64 l-0.52 0 c-2.22 0 -3.64 -1.46 -3.64 -3.64 z M34.923 18.16 l0.52 0 c1.44 0 2.3 -0.9 2.3 -2.3 l0 -4.96 c0 -1.56 -0.76 -2.36 -2.3 -2.36 l-0.52 0 c-1.52 0 -2.36 0.82 -2.36 2.36 l0 4.96 c0 1.46 0.92 2.3 2.36 2.3 z M46.4045 15.86 l0 -7.86 c0 -0.42 0.34 -0.64 0.66 -0.64 c0.34 0 0.66 0.22 0.66 0.64 l0 7.86 c0 1.44 0.98 2.3 2.34 2.3 l0.5 0 c1.4 0 2.36 -0.98 2.36 -2.3 l0 -7.86 c0 -0.42 0.32 -0.64 0.66 -0.64 c0.32 0 0.66 0.22 0.66 0.64 l0 7.86 c0 2.06 -1.46 3.64 -3.68 3.64 l-0.5 0 c-2.22 0 -3.66 -1.54 -3.66 -3.64 z M68.266 10.28 l0 2.5 c0 2.38 -1.24 3.14 -3.34 3.14 l-1.86 0 l0 2.84 c0 0.42 -0.34 0.64 -0.66 0.64 c-0.34 0 -0.66 -0.22 -0.66 -0.64 l0 -10.74 c0 -0.38 0.32 -0.66 0.66 -0.66 l2.7 0 c1.1 0 3.16 0.22 3.16 2.92 z M65.106 8.7 l-2.04 0 l0 5.86 l1.86 0 c0.98 0 2.04 -0.24 2.02 -1.8 l-0.02 -2.48 c0 -0.48 -0.08 -1.58 -1.82 -1.58 z"></path></g></svg>